<svg viewBox="0 0 92 16" aria-hidden="true" focusable="false" xmlns="http://www.w3.org/2000/svg" role="img" aria-label="Preventx logo">
   <g>
      <path class="brand-logo-text" d="M5.63,7.65c1.5,0,2.51-1.05,2.51-2.58c0-1.5-1.01-2.51-2.51-2.51H2.98v5.09H5.63z M0,0h5.94 c3,0,5.25,2.04,5.25,5.07c0,2.98-2.33,5.14-5.25,5.14H2.98v5.5H0V0z"></path>
      <path class="brand-logo-text" d="M12.33,3.9h2.76v1.93h0.18c0.38-0.92,1.46-1.97,3.09-1.97h1.08v2.78h-1.21c-1.86,0-2.98,1.37-2.98,3.48 v5.59h-2.91V3.9z"></path>
      <path class="brand-logo-text" d="M28.73,8.59C28.6,7,27.37,5.95,25.66,5.95c-1.64,0-2.89,1.17-3.07,2.65H28.73z M19.72,9.87 c0-3.73,2.49-6.26,5.94-6.26c3.79,0,5.85,2.81,5.85,6.13v0.92h-8.97c0.09,1.8,1.32,3.01,3.21,3.01c1.43,0,2.53-0.67,2.94-1.64 h2.71c-0.58,2.4-2.69,3.97-5.74,3.97C22.19,16,19.72,13.4,19.72,9.87"></path>
      <polygon class="brand-logo-text" points="31.28,3.9 34.33,3.9 37.13,12.23 37.31,12.23 40.09,3.9 43.2,3.9 38.88,15.71 35.58,15.71 	"></polygon>
      <path class="brand-logo-text" d="M51.98,8.59C51.85,7,50.61,5.95,48.91,5.95c-1.64,0-2.89,1.17-3.07,2.65H51.98z M42.97,9.87 c0-3.73,2.49-6.26,5.94-6.26c3.79,0,5.85,2.81,5.85,6.13v0.92h-8.97c0.09,1.8,1.32,3.01,3.21,3.01c1.43,0,2.53-0.67,2.94-1.64 h2.71c-0.58,2.4-2.69,3.97-5.74,3.97C45.44,16,42.97,13.4,42.97,9.87"></path>
      <path class="brand-logo-text" d="M56.22,3.9H59v1.44h0.16c0.47-0.88,1.64-1.73,3.32-1.73c2.64,0,4.26,1.86,4.26,4.38v7.72h-2.91V8.75 c0-1.44-0.92-2.4-2.26-2.4c-1.41,0-2.42,1.12-2.42,2.6v6.75h-2.91V3.9z"></path>
      <path class="brand-logo-text" d="M69.56,11.78V6.24h-1.99V3.9h1.32c0.52,0,0.85-0.34,0.85-0.9V0.65h2.73V3.9h3.25v2.33h-3.25v5.43 c0,0.99,0.49,1.62,1.61,1.62h1.63v2.42h-2.24C71.04,15.71,69.56,14.32,69.56,11.78"></path>
      <polygon class="brand-logo-text" points="80.47,9.58 76.72,3.9 79.93,3.9 82.24,7.63 82.37,7.63 84.66,3.9 87.86,3.9 84.14,9.63 88.18,15.71 84.95,15.71 82.37,11.71 82.19,11.71 79.62,15.71 76.41,15.71"></polygon>
      <path class="brand-logo-text" d="M88.59,14.27c0-0.94,0.76-1.66,1.7-1.66c0.99,0,1.7,0.72,1.7,1.66c0,0.96-0.72,1.66-1.7,1.66 C89.36,15.93,88.59,15.24,88.59,14.27"></path>
   </g>
</svg>